<?xml version="1.0" encoding="UTF-8" standalone="no"?>
<!DOCTYPE svg PUBLIC "-//W3C//DTD SVG 1.1//EN" "http://www.w3.org/Graphics/SVG/1.1/DTD/svg11.dtd">
<svg width="100%" height="100%" viewBox="0 0 32 32" version="1.1" xmlns="http://www.w3.org/2000/svg" xmlns:xlink="http://www.w3.org/1999/xlink" xml:space="preserve" xmlns:serif="http://www.serif.com/" style="fill-rule:evenodd;clip-rule:evenodd;stroke-linejoin:round;stroke-miterlimit:2;">
    <g>
        <g>
            <path d="M9.6,30L3,30C2.5,30 2.1,29.6 2,29.2C1.9,28.7 2.2,28.2 2.7,28.1C3.7,27.8 4.3,26.8 4.3,25.7L4.3,24.7C4.3,23.1 4.9,21.6 6.1,20.5C7.2,19.5 8.6,18.9 10,18.9C13,19 15.3,21.4 15.4,24.4C15.4,25.9 14.9,27.3 13.8,28.4C12.7,29.4 11.2,30 9.6,30Z" style="fill:rgb(187,182,193);fill-rule:nonzero;"/>
        </g>
        <path d="M29.3,5.7C28.3,4.7 26.7,4.7 25.7,5.7L12.7,17.3C14.9,18.2 16.5,20 17.2,22.3L29.4,9.3C30.3,8.3 30.2,6.7 29.3,5.7Z" style="fill:rgb(187,182,193);fill-rule:nonzero;"/>
    </g>
</svg>
