<?xml version="1.0" encoding="UTF-8" standalone="no"?>
<!DOCTYPE svg PUBLIC "-//W3C//DTD SVG 1.1//EN" "http://www.w3.org/Graphics/SVG/1.1/DTD/svg11.dtd">
<svg width="100%" height="100%" viewBox="0 0 32 32" version="1.1" xmlns="http://www.w3.org/2000/svg" xmlns:xlink="http://www.w3.org/1999/xlink" xml:space="preserve" xmlns:serif="http://www.serif.com/" style="fill-rule:evenodd;clip-rule:evenodd;stroke-linejoin:round;stroke-miterlimit:2;">
    <g>
        <path d="M27,28L5,28C4.4,28 4,28.4 4,29C4,29.6 4.4,30 5,30L27,30C27.6,30 28,29.6 28,29C28,28.4 27.6,28 27,28Z" style="fill:rgb(187,182,193);fill-rule:nonzero;"/>
        <path d="M9.2,25.7C9.4,25.9 9.6,26 9.9,26L17,26C17.3,26 17.5,25.9 17.7,25.7L27.8,15.6C29.7,13.7 29.7,10.5 27.8,8.5L23.5,4.2C21.6,2.3 18.4,2.3 16.4,4.2L5.6,15C3.7,16.9 3.7,20.1 5.6,22.1L9.2,25.7ZM7,16.4L12,11.4L20.6,20L16.6,24L10.3,24L7,20.7C5.8,19.5 5.8,17.6 7,16.4Z" style="fill:rgb(187,182,193);fill-rule:nonzero;"/>
    </g>
</svg>
