<?xml version="1.0" encoding="UTF-8" standalone="no"?>
<!DOCTYPE svg PUBLIC "-//W3C//DTD SVG 1.1//EN" "http://www.w3.org/Graphics/SVG/1.1/DTD/svg11.dtd">
<svg width="100%" height="100%" viewBox="0 0 32 32" version="1.1" xmlns="http://www.w3.org/2000/svg" xmlns:xlink="http://www.w3.org/1999/xlink" xml:space="preserve" xmlns:serif="http://www.serif.com/" style="fill-rule:evenodd;clip-rule:evenodd;stroke-linejoin:round;stroke-miterlimit:2;">
    <g transform="matrix(-1,0,0,1,31.6494,0)">
        <path d="M5.7,23.3C5.3,22.9 4.7,22.9 4.3,23.3C3.8,23.8 2,25.6 2,27C2,28.7 3.3,30 5,30C6.7,30 8,28.7 8,27C8,25.6 6.2,23.8 5.7,23.3Z" style="fill:rgb(187,182,193);fill-rule:nonzero;"/>
        <path d="M28.8,15.3L25.8,11.9C24.3,13.9 22.6,15.8 21.1,17.2L21,17.3C20.8,18.8 19.6,19.9 18,19.9C16.3,19.9 15,18.6 15,16.9C15,15.2 16.3,13.9 18,13.9C18.4,13.9 18.9,14 19.2,14.2C19,14.4 18.8,14.6 18.6,14.8C18.2,15.2 18.2,15.8 18.6,16.2C18.8,16.4 19,16.5 19.3,16.5C19.6,16.5 19.8,16.4 20,16.2C24,12.2 30.1,4.7 27.6,2.2C25.9,0.5 22.1,2.7 19.1,5.1C17.7,4.6 16.1,4.9 15,6L11,10C8.9,12.1 6.5,13.8 3.7,15C2.7,15.4 2,16.3 1.8,17.4C1.6,18.5 1.9,19.6 2.7,20.3C3.3,20.9 4.1,21.3 5,21.3C5.8,21.3 6.5,21 7.1,20.5L11.6,16C12,15.6 12.6,15.6 13,16C13.4,16.4 13.4,17 13,17.4L9.1,21.3L16.2,27.6C17.1,28.4 18.2,28.8 19.3,28.8C20.5,28.8 21.7,28.3 22.7,27.4L28.3,21.8C30.3,20 30.4,17.2 28.8,15.3ZM26.3,3.7C26.6,4.2 25.7,6.4 23.5,9.4L20.9,6.5C24.5,3.8 26.1,3.6 26.3,3.7Z" style="fill:rgb(187,182,193);fill-rule:nonzero;"/>
    </g>
</svg>
