<?xml version="1.0" encoding="UTF-8" standalone="no"?>
<!DOCTYPE svg PUBLIC "-//W3C//DTD SVG 1.1//EN" "http://www.w3.org/Graphics/SVG/1.1/DTD/svg11.dtd">
<svg width="100%" height="100%" viewBox="0 0 20 20" version="1.1" xmlns="http://www.w3.org/2000/svg" xmlns:xlink="http://www.w3.org/1999/xlink" xml:space="preserve" xmlns:serif="http://www.serif.com/" style="fill-rule:evenodd;clip-rule:evenodd;stroke-linejoin:round;stroke-miterlimit:2;">
    <g transform="matrix(1,0,0,1,-2,-2)">
        <g id="Icons">
            <g id="Rounded">
                <g id="Image">
                    <g id="_-Round---Image---grid_on" serif:id="-Round-/-Image-/-grid_on">
                        <g>
                            <path id="Path" d="M0,0L24,0L24,24L0,24L0,0Z" style="fill:none;"/>
                            <path id="🔹-Icon-Color" d="M20,2L4,2C2.9,2 2,2.9 2,4L2,20C2,21.1 2.9,22 4,22L20,22C21.1,22 22,21.1 22,20L22,4C22,2.9 21.1,2 20,2ZM8,20L5,20C4.45,20 4,19.55 4,19L4,16L8,16L8,20ZM8,14L4,14L4,10L8,10L8,14ZM8,8L4,8L4,5C4,4.45 4.45,4 5,4L8,4L8,8ZM14,20L10,20L10,16L14,16L14,20ZM14,14L10,14L10,10L14,10L14,14ZM14,8L10,8L10,4L14,4L14,8ZM19,20L16,20L16,16L20,16L20,19C20,19.55 19.55,20 19,20ZM20,14L16,14L16,10L20,10L20,14ZM20,8L16,8L16,4L19,4C19.55,4 20,4.45 20,5L20,8Z" style="fill:rgb(187,182,193);"/>
                        </g>
                    </g>
                </g>
            </g>
        </g>
    </g>
</svg>
