<?xml version="1.0" encoding="UTF-8" standalone="no"?>
<!DOCTYPE svg PUBLIC "-//W3C//DTD SVG 1.1//EN" "http://www.w3.org/Graphics/SVG/1.1/DTD/svg11.dtd">
<svg width="100%" height="100%" viewBox="0 0 25 25" version="1.1" xmlns="http://www.w3.org/2000/svg" xmlns:xlink="http://www.w3.org/1999/xlink" xml:space="preserve" xmlns:serif="http://www.serif.com/" style="fill-rule:evenodd;clip-rule:evenodd;stroke-linejoin:round;stroke-miterlimit:2;">
    <g id="Pointer_1_" transform="matrix(-1,0,0,1,24.9887,0)">
        <path d="M24.83,20.68L15.64,11.92L21.31,8.47C21.47,8.37 21.57,8.19 21.55,7.99C21.53,7.8 21.4,7.64 21.22,7.57L0.76,0.08C0.6,-0.01 0.41,-0.02 0.25,0.08C0.15,0.14 0.08,0.22 0.04,0.32C-0.02,0.45 -0.01,0.61 0.04,0.74L7.55,21.25C7.62,21.43 7.78,21.56 7.97,21.58C8.16,21.6 8.35,21.51 8.45,21.34L11.95,15.61L20.66,24.85C20.75,24.95 20.88,25 21.02,25.01L21.03,25.01C21.16,25.01 21.29,24.96 21.38,24.86L24.84,21.4C24.94,21.3 24.99,21.18 24.99,21.04C24.99,20.9 24.93,20.77 24.83,20.68Z" style="fill:rgb(187,182,193);fill-rule:nonzero;"/>
    </g>
</svg>
